<svg xmlns="http://www.w3.org/2000/svg" xmlns:xlink="http://www.w3.org/1999/xlink" width="2053" height="1829" viewBox="0 0 2053 1829">
  <metadata><?xpacket begin="﻿" id="W5M0MpCehiHzreSzNTczkc9d"?>
<x:xmpmeta xmlns:x="adobe:ns:meta/" x:xmptk="Adobe XMP Core 5.6-c142 79.160924, 2017/07/13-01:06:39        ">
   <rdf:RDF xmlns:rdf="http://www.w3.org/1999/02/22-rdf-syntax-ns#">
      <rdf:Description rdf:about=""/>
   </rdf:RDF>
</x:xmpmeta>
                                                                                                    
                                                                                                    
                                                                                                    
                                                                                                    
                                                                                                    
                                                                                                    
                                                                                                    
                                                                                                    
                                                                                                    
                                                                                                    
                                                                                                    
                                                                                                    
                                                                                                    
                                                                                                    
                                                                                                    
                                                                                                    
                                                                                                    
                                                                                                    
                                                                                                    
                                                                                                    
                           
<?xpacket end="w"?></metadata>
<defs>
    <style>
      .cls-1 {
        fill: #fff;
        stroke: url(#linear-gradient);
      }

      .cls-1, .cls-2, .cls-3, .cls-4 {
        stroke-width: 1px;
      }

      .cls-2, .cls-3, .cls-4 {
        fill: #ebebeb;
        fill-rule: evenodd;
      }

      .cls-2 {
        stroke: url(#linear-gradient-2);
      }

      .cls-3 {
        stroke: url(#linear-gradient-3);
      }

      .cls-4 {
        stroke: url(#linear-gradient-4);
      }
    </style>
    <linearGradient id="linear-gradient" x1="1022" y1="1101" x2="1022" y2="729" gradientUnits="userSpaceOnUse">
      <stop offset="0" stop-color="#ff00f0"/>
      <stop offset="1" stop-color="#00601b"/>
    </linearGradient>
    <linearGradient id="linear-gradient-2" x1="1025.923" y1="1826.09" x2="1025.923" y2="2.125" xlink:href="#linear-gradient"/>
    <linearGradient id="linear-gradient-3" x1="1027.17" y1="1820.28" x2="1027.17" y2="8.125" xlink:href="#linear-gradient"/>
    <linearGradient id="linear-gradient-4" x1="1025.096" y1="1338.16" x2="1025.096" y2="486.25" xlink:href="#linear-gradient"/>
  </defs>
  <circle class="cls-1" cx="1022" cy="915" r="186"/>
  <path id="Shape_1_copy" data-name="Shape 1 copy" class="cls-2" d="M668,678c166.354-287.706,615.09-786.266,855-654,258.9,142.733,81.61,726.506-132,1106-176.41,313.41-656.5,838.45-887,660C284.9,1620.38,447.537,1059.29,668,678Zm76,54C928.142,402.453,1332.38-3.979,1501.91,109.885,1611.11,183.23,1574.61,616.15,1314,1077c-161.62,285.8-572.459,769.15-754.893,638.19C393.491,1596.31,547.831,1083.07,744,732Z"/>
  <path id="Shape_1_copy_3" data-name="Shape 1 copy 3" class="cls-3" d="M1409.25,721.966c166.15,287.824,373.93,925.594,139.51,1067.374-252.97,152.99-670.151-292.18-892.22-666.79C473.144,813.181,258.088,135.016,527.809,24.463,784.2-80.624,1189.05,340.528,1409.25,721.966Zm-84.75,38.869c193.52,324.125,343.71,877.335,160.39,967.325-118.08,57.97-474.9-189.88-743.974-645.84C574.049,799.55,360.52,202.206,565.093,109.57,750.808,25.474,1118.35,415.535,1324.5,760.835Z"/>
  <path id="Shape_1_copy_2" data-name="Shape 1 copy 2" class="cls-4" d="M1055.97,486.379c332.31,3.732,986.93,150,989.45,423.951,2.7,295.62-592.93,427.68-1028.42,427.82C657.36,1338.27-35.724,1177.67,6.623,889.264,46.877,615.117,615.56,481.433,1055.97,486.379Zm-9.75,92.72c377.5-1.305,930.02,151.419,914.01,355.006-10.3,131.145-405.41,311.825-934.84,310.945-328.331-.54-951.1-121.27-926.541-344.489C121.145,697.916,644.063,580.49,1046.22,579.1Z"/>
</svg>
